# xmcd CD database file generated by MAGIX-FreeDB-MP3_deluxe_MX v3.0beta1
#
# Track frame offsets:
#	182
#	15245
#	30195
#
# Disc length: 601
#
# Revision: 2
# Processed by: cddbd v1.5.2PL0 Copyright (c) Steve Scherf et al.
# Submitted via: MAGIX-FreeDB-MP3_deluxe_MX v3.0beta1
#
DISCID=0d025703
DTITLE=Robin Beck - First Time
DYEAR=1988
DGENRE=Pop
TTITLE0=First Time (Remix)
TTITLE1=First Time (7" Version)
TTITLE2=First Time (Instrumental Version)
EXTD=Single
EXTT0=Single
EXTT1=Single
EXTT2=Single
PLAYORDER=
